<?xml version="1.0" encoding="UTF-8" standalone="no"?>
<svg width="22px" height="15px" viewBox="0 0 22 15" version="1.1" xmlns="http://www.w3.org/2000/svg" xmlns:xlink="http://www.w3.org/1999/xlink">
    <!-- Generator: Sketch Beta 3.7 (28138) - http://www.bohemiancoding.com/sketch -->
    <title>Shape</title>
    <desc>Created with Sketch Beta.</desc>
    <defs></defs>
    <g id="Page-1" stroke="none" stroke-width="1" fill="none" fill-rule="evenodd">
        <g id="Artboard-1-Copy-6" transform="translate(-924.000000, -229.000000)" fill="#FFFFFF">
            <path d="M945.303681,237.144172 L938.677914,243.723926 C938.493865,243.907975 938.263804,244 938.033742,244 C937.803681,244 937.57362,243.907975 937.389571,243.723926 C937.021472,243.355828 937.021472,242.803681 937.389571,242.481595 L942.496933,237.374233 L924.874233,237.374233 C924.368098,237.374233 924,236.960123 924,236.5 C924,235.993865 924.41411,235.625767 924.874233,235.625767 L942.542945,235.625767 L937.435583,230.518405 C937.067485,230.150307 937.067485,229.59816 937.435583,229.276074 C937.803681,228.907975 938.355828,228.907975 938.677914,229.276074 L945.303681,235.90184 C945.671779,236.223926 945.671779,236.776074 945.303681,237.144172 L945.303681,237.144172 Z" id="Shape"></path>
        </g>
    </g>
</svg>