<?xml version="1.0" encoding="UTF-8" standalone="no"?>
<svg width="40px" height="41px" viewBox="0 0 40 41" version="1.1" xmlns="http://www.w3.org/2000/svg" xmlns:xlink="http://www.w3.org/1999/xlink">
    <!-- Generator: Sketch Beta 3.7 (28138) - http://www.bohemiancoding.com/sketch -->
    <title>Group 2</title>
    <desc>Created with Sketch Beta.</desc>
    <defs></defs>
    <g id="Page-1" stroke="none" stroke-width="1" fill="none" fill-rule="evenodd">
        <g id="Artboard-1-Copy-6" transform="translate(-484.000000, -216.000000)">
            <g id="Group-2" transform="translate(484.000000, 216.000000)">
                <rect id="Rectangle-13" fill="#FFFFFF" x="0" y="0" width="40" height="40" rx="2"></rect>
                <path d="M21.2150214,24.5479345 L21.2150214,40.085 L27.4953012,40.085 L27.4953012,24.5479345 L32.711959,24.5479345 L33.5186755,18.4885607 L27.4953012,18.4885607 L27.4953012,14.5940672 C27.4953012,13.6400799 27.7162074,12.9053625 28.1203838,12.3915511 C28.5245602,11.9137393 29.2952772,11.6568337 30.4701707,11.6568337 L33.6659462,11.6568337 L33.6659462,6.25690566 C32.5646882,6.07363538 31.0216179,6 29.0023721,6 C26.6509489,6 24.741338,6.69708161 23.3455384,8.09451752 C21.9137393,9.48868075 21.2150214,11.471927 21.2150214,14.0066205 L21.2150214,18.4885607 L16,18.4885607 L16,24.5479345 L21.2150214,24.5479345" id="Fill-22" fill="#39579A"></path>
            </g>
        </g>
    </g>
</svg>