<?xml version="1.0" encoding="UTF-8" standalone="no"?>
<svg width="25px" height="10px" viewBox="0 0 25 10" version="1.1" xmlns="http://www.w3.org/2000/svg" xmlns:xlink="http://www.w3.org/1999/xlink">
    <!-- Generator: Sketch Beta 3.7 (28138) - http://www.bohemiancoding.com/sketch -->
    <title>Group</title>
    <desc>Created with Sketch Beta.</desc>
    <defs></defs>
    <g id="Page-1" stroke="none" stroke-width="1" fill="none" fill-rule="evenodd" opacity="0.503964552">
        <g id="Artboard-1-Copy-6" transform="translate(-483.000000, -472.000000)" fill="#333333">
            <g id="Group" transform="translate(494.000000, 477.000000) scale(1, -1) rotate(-315.000000) translate(-494.000000, -477.000000) translate(484.000000, 467.000000)">
                <path d="M2.37638298,14.457234 C2.37638298,15.173617 2.95914894,15.7542553 3.67382979,15.7542553 C4.39021277,15.7542553 4.9712766,15.173617 4.9712766,14.457234 C4.9712766,13.7429787 4.39042553,13.1597872 3.67382979,13.1597872 C2.95914894,13.16 2.37638298,13.7429787 2.37638298,14.457234 L2.37638298,14.457234 Z M4.24553191,14.457234 C4.24553191,14.7729787 3.98957447,15.0291489 3.67361702,15.0291489 C3.35957447,15.0291489 3.10382979,14.7731915 3.10382979,14.457234 C3.10382979,14.1434043 3.35957447,13.8874468 3.67361702,13.8874468 C3.98957447,13.8874468 4.24553191,14.143617 4.24553191,14.457234 L4.24553191,14.457234 Z" id="Shape"></path>
                <path d="M11.6604255,10.7206383 L19.8097872,2.57148936 C19.8787234,2.50255319 19.9165957,2.4112766 19.9165957,2.31340426 L19.9165957,0.446382979 C19.9165957,0.245957447 19.7542553,0.0836170213 19.5540426,0.0836170213 L17.6870213,0.0836170213 C17.5889362,0.0836170213 17.4974468,0.121276596 17.4289362,0.190212766 L16.6008511,1.01574468 L15.8174468,1.01574468 C15.6170213,1.01574468 15.4546809,1.17829787 15.4546809,1.38085106 L15.4546809,2.16404255 L14.7338298,2.88510638 L13.9485106,2.88510638 C13.7478723,2.88510638 13.5855319,3.04744681 13.5855319,3.24787234 L13.5855319,3.81978723 L13.0155319,3.81978723 C12.8155319,3.81978723 12.6529787,3.98212766 12.6529787,4.18255319 L12.6529787,4.96574468 L10.9974468,6.62148936 L10.2142553,6.62148936 C10.0114894,6.62148936 9.84893617,6.78382979 9.84893617,6.98425532 L9.84893617,7.9187234 C9.84893617,8.11914894 10.0114894,8.28170213 10.2142553,8.28170213 C10.4142553,8.28170213 10.5765957,8.11914894 10.5765957,7.9187234 L10.5765957,7.34702128 L11.146383,7.34702128 C11.2444681,7.34702128 11.3357447,7.30914894 11.4046809,7.24212766 L13.2719149,5.37297872 C13.3404255,5.30425532 13.3787234,5.21276596 13.3787234,5.11723404 L13.3787234,4.54531915 L13.9485106,4.54531915 C14.1508511,4.54531915 14.3131915,4.38297872 14.3131915,4.18255319 L14.3131915,3.61042553 L14.8829787,3.61042553 C14.9810638,3.61042553 15.0721277,3.57297872 15.1410638,3.50617021 L16.0759574,2.57148936 C16.1425532,2.50255319 16.1806383,2.4112766 16.1806383,2.31340426 L16.1806383,1.74361702 L16.7525532,1.74361702 C16.8480851,1.74361702 16.9417021,1.70574468 17.0082979,1.63680851 L17.8359574,0.80893617 L19.1917021,0.80893617 L19.1917021,2.16404255 L10.8908511,10.4651064 C10.7482979,10.6051064 10.7482979,10.8365957 10.8908511,10.9791489 L11.8229787,11.9117021 C11.9342553,12.0251064 12.4617021,12.6306383 11.8255319,13.2668085 L6.22148936,18.87 C6.10595745,18.9812766 5.50276596,19.5082979 4.86404255,18.87 L1.12787234,15.1338298 C0.493829787,14.4993617 1.0187234,13.8938298 1.13,13.7808511 L6.73361702,8.17510638 C7.37021277,7.53851064 7.97531915,8.06617021 8.08893617,8.17510638 L9.02106383,9.10978723 C9.16361702,9.25212766 9.39531915,9.25212766 9.53531915,9.10978723 C9.67787234,8.96744681 9.67787234,8.73829787 9.53531915,8.59553191 L8.60276596,7.66319149 C8.57170213,7.63212766 8.29595745,7.36489362 7.87510638,7.22489362 C7.28744681,7.02680851 6.69808511,7.18255319 6.21957447,7.66319149 L0.616170213,13.2668085 C0.584680851,13.2955319 0.317659574,13.5738298 0.177446809,13.9919149 C-0.0182978723,14.5819149 0.135106383,15.1691489 0.613404255,15.6474468 L4.35212766,19.3842553 C4.69468085,19.7291489 5.09531915,19.9048936 5.5112766,19.9048936 C5.67404255,19.9048936 5.84085106,19.8782979 6.00765957,19.8225532 C6.42617021,19.6825532 6.70212766,19.4148936 6.73319149,19.3840426 L12.3368085,13.7808511 C13.2114894,12.9061702 12.8174468,11.8780851 12.3368085,11.397234 L11.6604255,10.7206383 L11.6604255,10.7206383 Z" id="Shape"></path>
            </g>
        </g>
    </g>
</svg>