<?xml version="1.0" encoding="UTF-8" standalone="no"?>
<svg width="281px" height="43px" viewBox="0 0 281 43" version="1.1" xmlns="http://www.w3.org/2000/svg" xmlns:xlink="http://www.w3.org/1999/xlink">
    <!-- Generator: Sketch Beta 3.7 (28138) - http://www.bohemiancoding.com/sketch -->
    <title>Full-Logo</title>
    <desc>Created with Sketch Beta.</desc>
    <defs></defs>
    <g id="Page-1" stroke="none" stroke-width="1" fill="none" fill-rule="evenodd">
        <g id="Artboard-1-Copy-6" transform="translate(-580.000000, -108.000000)" fill="#FFFFFF">
            <g id="Full-Logo" transform="translate(580.000000, 108.000000)">
                <g id="Group">
                    <path d="M248.4,10.5 L244.8,10.5 C243.8,10.5 243,11.3 243,12.3 L243,26.2 C243,28 242.8,29.4 242.3,30.5 C241.4,32.5 239.7,33.5 237.3,33.5 C235.4,33.5 234.1,32.8 233.5,31.4 C233.1,30.6 233,29.4 233,27.9 L233,12.4 C233,11.4 232.2,10.6 231.2,10.6 L227.5,10.6 C226.5,10.6 225.7,11.4 225.7,12.4 L225.7,27.9 C225.7,31 226.1,33.4 226.9,35 C228.3,37.9 231,39.4 235.1,39.4 C236.5,39.4 237.7,39.2 238.8,38.8 C239.8,38.4 240.9,37.7 242,36.7 C242.4,36.4 242.7,36 243,35.6 C243.3,35.2 243.4,34.9 243.5,34.8 L243.5,37 C243.5,38 244.3,38.8 245.3,38.8 L248.6,38.8 C249.6,38.8 250.4,38 250.4,37 L250.4,12.3 C250.2,11.3 249.4,10.5 248.4,10.5 L248.4,10.5 Z" id="Shape"></path>
                    <path d="M189.7,1 L186.1,1 C185.1,1 184.3,1.8 184.3,2.8 L184.3,37 C184.3,38 185.1,38.8 186.1,38.8 L189.7,38.8 C190.7,38.8 191.5,38 191.5,37 L191.5,2.8 C191.5,1.8 190.7,1 189.7,1 L189.7,1 Z" id="Shape"></path>
                    <g transform="translate(120.000000, 1.000000)" id="Shape">
                        <path d="M5.9,9.5 L2.3,9.5 C1.3,9.5 0.5,10.3 0.5,11.3 L0.5,36 C0.5,37 1.3,37.8 2.3,37.8 L5.9,37.8 C6.9,37.8 7.7,37 7.7,36 L7.7,11.3 C7.7,10.3 6.9,9.5 5.9,9.5 L5.9,9.5 Z"></path>
                        <path d="M0.4,4.8 C0.4,5.8 1.2,6.6 2.2,6.6 L5.8,6.6 C6.8,6.6 7.6,5.8 7.6,4.8 L7.6,1.8 C7.6,0.8 6.8,0 5.8,0 L2.2,0 C1.2,0 0.4,0.8 0.4,1.8 L0.4,4.8 L0.4,4.8 Z"></path>
                    </g>
                    <path d="M219.2,35 C216.9,37.9 213.4,39.3 208.7,39.3 C204,39.3 200.5,37.9 198.2,35 C195.9,32.1 194.7,28.7 194.7,24.7 C194.7,20.7 195.9,17.3 198.2,14.4 C200.5,11.5 204,10 208.7,10 C213.4,10 216.9,11.5 219.2,14.4 C221.5,17.3 222.7,20.7 222.7,24.7 C222.6,28.7 221.5,32.1 219.2,35 L219.2,35 Z M213.4,31 C214.5,29.5 215.1,27.4 215.1,24.6 C215.1,21.8 214.5,19.7 213.4,18.2 C212.3,16.7 210.7,16 208.6,16 C206.5,16 204.9,16.7 203.8,18.2 C202.7,19.7 202.1,21.8 202.1,24.6 C202.1,27.3 202.7,29.5 203.8,31 C204.9,32.5 206.5,33.2 208.6,33.2 C210.7,33.3 212.3,32.5 213.4,31 L213.4,31 Z" id="Shape"></path>
                    <path d="M278.2,1 L274.6,1 C273.6,1 272.8,1.8 272.8,2.8 L272.8,14.4 C272,13.1 271,12.1 269.7,11.4 C268.4,10.7 266.9,10.3 265.3,10.3 C261.7,10.3 258.8,11.6 256.7,14.3 C254.6,17 253.5,20.7 253.5,25.4 C253.5,29.5 254.6,32.8 256.8,35.4 C259,38 261.7,39.3 264.9,39.3 C266.8,39.3 268.5,38.9 269.8,38.2 C271.1,37.5 272.3,36.3 273.3,34.6 L273.3,37.1 C273.3,38.1 274.1,38.9 275.1,38.9 L278.4,38.9 C279.4,38.9 280.2,38.1 280.2,37.1 L280.2,2.8 C280,1.8 279.2,1 278.2,1 L278.2,1 Z M271.4,30.9 C270.3,32.4 268.8,33.2 266.8,33.2 C264.8,33.2 263.3,32.4 262.3,30.9 C261.3,29.4 260.8,27.4 260.8,24.8 C260.8,22.4 261.3,20.5 262.3,18.9 C263.3,17.3 264.8,16.5 266.9,16.5 C268.3,16.5 269.5,16.9 270.5,17.8 C272.2,19.2 273,21.6 273,25 C273,27.4 272.4,29.4 271.4,30.9 L271.4,30.9 Z" id="Shape"></path>
                    <path d="M155.4,36.1 L155.4,36.1 L147.7,24.7 L155.1,13.3 L155.1,13.3 C155.3,13 155.3,12.7 155.3,12.4 C155.3,11.4 154.5,10.6 153.5,10.6 L149.5,10.6 C148.8,10.6 148.2,11 147.9,11.5 L143.7,19 L139.4,11.5 L139.4,11.5 C139.1,11 138.5,10.6 137.8,10.6 L133.5,10.6 C132.5,10.6 131.7,11.4 131.7,12.4 C131.7,12.7 131.8,13 131.9,13.3 L131.9,13.3 L139.2,24.8 L131.5,36.2 L131.5,36.2 C131.3,36.5 131.3,36.8 131.3,37.1 C131.3,38.1 132.1,38.9 133.1,38.9 L137.3,38.9 C138,38.9 138.6,38.5 138.9,38 L138.9,38 L143.4,30.2 L147.8,38 C148.1,38.5 148.7,38.9 149.4,38.9 L153.9,38.9 C154.9,38.9 155.7,38.1 155.7,37.1 C155.6,36.7 155.6,36.4 155.4,36.1 L155.4,36.1 Z" id="Shape"></path>
                    <path d="M181,30.2 C181,30 181,29.9 180.9,29.7 C180.9,29.5 180.8,29.4 180.7,29.2 C180.4,28.7 179.8,28.3 179.1,28.3 L175.5,28.3 C174.7,28.3 173.9,28.9 173.7,29.7 C173.5,30.5 173.1,31.3 172.7,31.9 C172,32.8 170.8,33.3 169.1,33.3 C166.7,33.3 165.1,32.2 164.3,29.9 C163.8,28.7 163.6,27.1 163.6,25.1 C163.6,23 163.8,21.3 164.3,20 C165.2,17.6 166.8,16.4 169.3,16.4 C171,16.4 172.2,17 173,18.1 C173.3,18.5 173.5,19 173.7,19.5 L173.7,19.5 C173.7,19.7 173.8,19.8 173.9,20 C174.2,20.5 174.8,20.9 175.5,20.9 L179.3,20.9 C180.3,20.9 181.1,20.1 181.1,19.1 C181.1,18.9 181.1,18.8 181,18.6 L181,18.6 C180.4,15.9 179.2,13.9 177.5,12.7 C175.3,11.2 172.5,10.4 169.1,10.4 C165.1,10.4 161.9,11.7 159.6,14.3 C157.3,16.9 156.2,20.6 156.2,25.3 C156.2,29.5 157.2,32.9 159.3,35.5 C161.4,38.1 164.6,39.4 169,39.4 C173.4,39.4 176.7,37.8 179,34.7 C179.9,33.5 180.5,32.2 180.9,30.9 C180.9,30.8 181,30.7 181,30.6 L181,30.6 C181,30.4 181,30.3 181,30.2 L181,30.2 Z" id="Shape"></path>
                    <path d="M114.1,1 L104.8,1 C104.1,1 103.5,1.4 103.2,1.9 C103.1,2 103.1,2.2 103,2.3 L97.9,27.6 L92.7,2.2 C92.7,2 92.6,1.9 92.5,1.7 C92.2,1.2 91.7,0.8 91,0.8 L81.5,0.8 C80.5,0.8 79.7,1.6 79.7,2.6 L79.7,37 C79.7,38 80.5,38.8 81.5,38.8 L85.1,38.8 C86.1,38.8 86.9,38 86.9,37 L86.9,8.3 L93.5,37.5 L93.5,37.5 C93.5,37.7 93.6,37.8 93.7,38 C94,38.5 94.6,38.9 95.3,38.9 L100,38.9 C100.7,38.9 101.3,38.5 101.6,38 C101.7,37.9 101.7,37.7 101.8,37.5 L101.9,37 L108.5,8.3 L108.5,37 C108.5,38 109.3,38.8 110.3,38.8 L113.9,38.8 C114.9,38.8 115.7,38 115.7,37 L115.7,2.8 C115.9,1.8 115.1,1 114.1,1 L114.1,1 Z" id="Shape"></path>
                    <path d="M64.9,43 C64.4,43 64,42.9 63.6,42.6 C62.5,41.9 62.2,40.4 63,39.3 C65.2,36 66.3,32.2 66.3,28.2 C66.3,24.2 65.1,20.4 63,17.1 C62.3,16 62.6,14.5 63.6,13.8 C64.7,13.1 66.1,13.4 66.9,14.4 C69.6,18.4 71,23.2 71,28.1 C71,33 69.6,37.7 66.9,41.8 C66.4,42.6 65.6,43 64.9,43 L64.9,43 L64.9,43 Z" id="Shape"></path>
                    <path d="M58.1,39.2 C57.6,39.2 57.2,39.1 56.8,38.8 C55.7,38.1 55.4,36.6 56.2,35.5 C57.6,33.4 58.4,30.9 58.4,28.3 C58.4,25.7 57.6,23.2 56.2,21.1 C55.5,20 55.8,18.5 56.8,17.8 C57.9,17.1 59.3,17.4 60.1,18.4 C62.1,21.3 63.1,24.7 63.1,28.3 C63.1,31.8 62.1,35.2 60.1,38.2 C59.6,38.8 58.9,39.2 58.1,39.2 L58.1,39.2 L58.1,39.2 Z" id="Shape"></path>
                    <path d="M47.1,17.9 C46.2,8.4 38.2,1 28.5,1 C20.5,1 13.3,6.2 10.8,13.7 C4.7,14.6 0.1,19.8 0.1,26.2 C0.1,33.2 5.7,38.8 12.7,38.8 L44.9,38.8 C50.7,38.8 55.4,34.1 55.4,28.2 C55.4,23.2 51.8,19 47.1,17.9 L47.1,17.9 Z M44.8,34.1 L12.6,34.1 C8.3,34.1 4.7,30.6 4.7,26.2 C4.7,21.9 8.2,18.3 12.6,18.3 C14.7,18.3 16.7,19.1 18.2,20.6 C19.1,21.5 20.6,21.5 21.5,20.6 C22.4,19.7 22.4,18.2 21.5,17.2 C19.9,15.6 17.9,14.5 15.7,13.9 C17.9,9 22.9,5.7 28.5,5.7 C36.2,5.7 42.5,12 42.5,19.7 C42.5,21.2 42.3,22.7 41.8,24.1 C41.4,25.3 42.1,26.7 43.3,27.1 C43.5,27.2 43.8,27.2 44,27.2 C45,27.2 45.9,26.6 46.2,25.6 C46.5,24.7 46.7,23.7 46.9,22.7 C49.1,23.5 50.6,25.7 50.6,28.1 C50.7,31.5 48,34.1 44.8,34.1 L44.8,34.1 Z" id="Shape"></path>
                </g>
            </g>
        </g>
    </g>
</svg>