<?xml version="1.0" encoding="UTF-8" standalone="no"?>
<svg width="20px" height="20px" viewBox="0 0 20 20" version="1.1" xmlns="http://www.w3.org/2000/svg" xmlns:xlink="http://www.w3.org/1999/xlink">
    <!-- Generator: Sketch Beta 3.7 (28138) - http://www.bohemiancoding.com/sketch -->
    <title>Shape</title>
    <desc>Created with Sketch Beta.</desc>
    <defs></defs>
    <g id="Page-1" stroke="none" stroke-width="1" fill="none" fill-rule="evenodd" opacity="0.503964552">
        <g id="Artboard-1-Copy-6" transform="translate(-484.000000, -377.000000)" fill="#333333">
            <path d="M499.999402,382.999468 C499.999402,379.691362 497.308106,377 494,377 C490.691894,377 488.000598,379.691362 488.000598,382.999468 C488.000598,384.61309 488.633688,386.123721 489.759269,387.244053 C486.087575,388.458538 484,391.251229 484,395.00113 L484,395.00113 C484,396.105075 484.892777,397 486.003839,397 L502.009205,397 L502.009205,397 C503.108691,397 504,396.1058 504,395.00113 L504,395.00113 C504,391.251229 501.912425,388.458538 498.240731,387.244053 C499.366246,386.123721 499.999402,384.613023 499.999402,382.999468 Z M486.80207,396.202658 C485.69489,396.202658 484.797342,395.304326 484.797342,395.00113 L484.797342,395.00113 C484.797342,393.134286 485.346977,391.5501 486.430963,390.292625 C487.43196,389.131429 488.89588,388.27196 490.664385,387.807309 L490.664385,387.807309 C491.095094,387.694136 490.807973,387.10711 490.807973,387.10711 L490.807973,387.10711 C489.530565,386.112957 488.79794,384.615748 488.79794,382.999468 C488.79794,380.13103 491.131561,377.797342 494,377.797342 C496.868439,377.797342 499.20206,380.13103 499.20206,382.999468 C499.20206,384.615748 498.469435,386.11289 497.192027,387.10711 L497.192027,387.10711 C496.840619,387.380647 497.335615,387.807309 497.335615,387.807309 L497.335615,387.807309 C499.10412,388.272027 500.567973,389.131429 501.569037,390.292625 C502.653023,391.5501 503.202658,393.134286 503.202658,395.00113 L503.202658,395.00113 C503.202658,395.664715 502.314931,396.202658 501.19793,396.202658 L486.80207,396.202658 Z" id="Shape"></path>
        </g>
    </g>
</svg>